<?xml version="1.0" encoding="UTF-8"?>
<svg id="Capa_2" data-name="Capa 2" xmlns="http://www.w3.org/2000/svg" viewBox="0 0 620.47 867.32">
  <defs>
    <style>
      .cls-1 {
        fill: #000;
        stroke-width: 0px;
      }
    </style>
  </defs>
  <g id="Capa_1-2" data-name="Capa 1">
    <g>
      <path class="cls-1" d="M507.48,505c-31.35-23.97-61.75-47.21-92.41-70.65-31.9,25.94-63.64,51.75-95.76,77.87V0c10.89,6.55,21.52,12.91,32.13,19.32,50.7,30.63,101.38,61.28,152.1,91.87,2.53,1.53,4.07,2.91,4.06,6.45-.14,127.49-.12,254.99-.12,382.48v4.88ZM430.1,129.48v36.43h35.02c0-11.49.06-22.61-.12-33.73-.01-.91-1.69-2.56-2.62-2.58-10.62-.18-21.24-.12-32.29-.12ZM355.97,206.09v35.79h35.57c0-11.23.08-22.16-.14-33.09-.02-.92-1.98-2.56-3.06-2.58-10.62-.2-21.25-.12-32.37-.12ZM356.58,287.3c-.29.35-.69.6-.69.85-.11,10.82-.27,21.64-.12,32.45.01.86,2.11,2.36,3.29,2.42,5.65.26,11.32.12,16.99.12,5.09,0,10.17,0,15.16,0v-35.85h-34.62ZM429.72,206.36c0,11.22-.07,22.16.12,33.1.02.92,1.71,2.57,2.64,2.59,10.63.19,21.27.12,32.29.12v-35.8h-35.05ZM464.9,286.93c-11.15,0-21.76-.09-32.36.16-.98.02-2.67,2.23-2.72,3.47-.27,6.97-.14,13.95-.14,20.93q0,11.66,11.78,11.67c7.73,0,15.45,0,23.44,0v-36.22ZM391.2,166.02v-34.65h-35.32v34.65h35.32Z"/>
      <path class="cls-1" d="M588.76,612.53H160.21c0-7.77.05-15.24,0-22.72-.15-18.32.45-36.69-.74-54.95-1.18-18.08-17.78-30.76-36.71-29.78-16.17.84-31.08,16.6-31.22,33.46-.18,22.83-.05,45.66-.06,68.5,0,1.78,0,3.56,0,5.56H15.79c-.09-1.77-.24-3.38-.24-4.99-.01-44.83.03-89.66-.08-134.49,0-3.17.96-5.07,3.46-7.03,34.2-26.83,68.3-53.8,102.43-80.72.9-.71,1.83-1.4,2.85-2.17,19.52,15.18,38.93,30.34,58.43,45.4,15.68,12.12,31.4,24.19,47.27,36.06,2.88,2.16,3.85,4.35,3.84,7.85-.11,40.66-.07,81.33-.06,121.99,0,6.53.04,6.18,6.53,6.78,7.11.66,12.57-1.68,18.08-6.19,51.71-42.28,103.62-84.31,155.48-126.41.64-.52,1.32-.98,2.36-1.75,9.33,7.23,18.62,14.47,27.95,21.65,47.13,36.25,94.26,72.5,141.46,108.65,2.37,1.82,3.54,3.63,3.28,6.62-.24,2.79-.05,5.61-.05,8.67ZM438.54,586.13v-42.73h-42.42v42.73h42.42Z"/>
      <path class="cls-1" d="M292.66,165.2c0,27.03,0,53.52,0,80.01,0,62.66-.04,125.33.03,187.99.04,31.49.23,62.98.5,94.47.03,3.32-.92,5.54-3.5,7.61-9.8,7.86-19.45,15.9-29.88,24.46,0-2.9,0-4.84,0-6.77-.06-31-.16-62-.11-93,0-3.12-.84-5.1-3.38-7.08-40.85-31.84-81.63-63.78-122.32-95.84-1.63-1.28-3.02-3.97-3.03-6.02-.2-28.5-.2-57-.04-85.49,0-1.74,1.23-4.22,2.65-5.08,52.27-31.56,104.63-62.97,156.99-94.39.4-.24.87-.37,2.08-.86ZM225.3,355.31v35.62h34.84v-35.62h-34.84ZM197.44,325v-35.64h-34.78v35.64h34.78ZM225.55,324.86h34.46v-35.49h-34.46v35.49Z"/>
      <path class="cls-1" d="M278.32,867.02v-119.17c22.66,1.54,45.4-2.88,67.5,4.36,19.88,6.52,33.19,24.05,34.78,44.91,1.25,16.35-.35,31.92-10.26,45.63-11.07,15.31-26.54,23.12-45.04,24.1-15.43.81-30.94.17-46.98.17ZM299.09,765.4v84.94c8.31,0,16.28.37,24.21-.09,10.83-.62,19.7-5.52,26.66-13.88,9.87-11.85,11.16-25.6,8.69-40.07-2.9-16.95-13.99-28.52-30.93-30.69-9.31-1.19-18.9-.21-28.63-.21Z"/>
      <path class="cls-1" d="M259.77,867.15c-7.29,0-13.79.19-20.25-.15-1.38-.07-3.34-1.77-3.87-3.16-2.94-7.75-5.56-15.63-8.18-23.5-.77-2.31-1.82-3.43-4.53-3.4-14.15.15-28.29.07-43.07.07-2.84,8.35-5.87,16.71-8.48,25.21-1.14,3.72-2.7,5.4-6.9,5.06-5.62-.46-11.3-.11-17.42-.11.37-1.4.58-2.6,1-3.72,13.88-36.98,27.81-73.93,41.6-110.94,1.21-3.26,2.66-4.86,6.38-4.52,4.3.38,8.7.5,12.97-.01,5.35-.64,7.62,1.35,9.45,6.43,12.88,35.75,26.15,71.35,39.29,107.01.62,1.68,1.19,3.39,2.01,5.75ZM203.04,768.37c-5.94,17.32-11.82,34.47-17.86,52.09h35.76c-6.04-17.58-11.94-34.74-17.9-52.09Z"/>
      <path class="cls-1" d="M425.26,748.31v101.99h45.71v16.5h-66.39v-118.5h20.67Z"/>
      <path class="cls-1" d="M152.08,717.96h-13.53c0-1.96.04-3.87,0-5.78-.28-11.13-.22-22.29-1.02-33.39-.43-5.88-4.11-8.72-9.44-9.22-5.41-.51-9.78,1.98-11.58,7.46-1.17,3.57-1.67,7.47-1.77,11.24-.26,9.32-.11,18.66-.13,27.99,0,.33-.09.66-.19,1.4h-13.3v-57.07h13.25c.14,2.36.27,4.71.42,7.31,14.39-12.75,26.51-12.08,35.2,1.87,4.27-6.5,9.85-10.61,17.93-10.63,13.21-.04,20.54,6.79,21.45,20.24.1,1.49.04,3,.04,4.5,0,11.15,0,22.3,0,33.82h-13.81c0-9.53,0-18.98,0-28.43,0-2.33.04-4.67-.04-7-.26-8.28-3.93-12.51-10.96-12.69-6.4-.17-11.73,4.7-12.1,12.09-.5,9.97-.32,19.98-.43,29.97-.02,1.97,0,3.93,0,6.32Z"/>
      <path class="cls-1" d="M290.46,712.19v5.63h-13.39v-83.34h13.29v35.44c6.22-9.36,14.11-11.67,23.24-10.66,9.73,1.08,18.44,8.79,19.4,19.25.74,8.08.3,16.74-1.86,24.52-3.61,13-18.03,19.75-30.81,15.42-3.53-1.19-6.49-4.07-9.86-6.28ZM290.28,689.38c.24,2.31.27,4.66.75,6.92,1.6,7.63,6.63,12.38,13.31,12.79,6.16.38,11.88-3.99,14.36-11.05,2.35-6.68,2.27-13.41-.18-20.02-2.31-6.24-8.11-9.45-14.72-8.43-8.8,1.36-13.35,8.11-13.52,19.79Z"/>
      <path class="cls-1" d="M263.67,688.35c-.14,19.36-12.59,31.8-31.49,31.47-18.57-.32-29.73-11.73-29.58-30.24.16-19.23,12.41-30.55,32.91-30.41,17.39.12,28.29,11.41,28.16,29.17ZM249.82,689.11c.13-10.23-3.78-16.89-11.2-19.03-9.35-2.7-17.98,1.88-20.91,11.11-3.73,11.76.75,24.14,10.16,26.93,3.03.9,6.65,1.01,9.73.3,8.13-1.88,12.09-8.54,12.23-19.31Z"/>
      <path class="cls-1" d="M45.48,718.07h-13.47v-57.46h13.24c.13,2.32.26,4.74.39,7.15.33.33.66.65.99.98.35-.81.54-1.75,1.07-2.41,5.28-6.66,14.11-9.14,23.04-6.47,8.16,2.44,12.61,8.18,12.83,16.47.37,13.75.1,27.52.1,41.51h-12.96c0-2.7,0-5.46,0-8.22-.04-8.99.09-17.99-.18-26.97-.22-7.66-3.98-12.13-10.04-12.73-7.2-.7-12.43,2.95-13.98,10.47-.86,4.18-.92,8.57-1,12.87-.15,8.11-.04,16.23-.04,24.8Z"/>
      <path class="cls-1" d="M471.86,682.17c-.34-9.98-3.62-13.65-12.2-12.98-5.97.46-11.81,2.51-17.94,3.91.22.41-.03.15-.04-.11-.41-10.2-.11-10.6,9.79-12.69,7.27-1.53,14.51-1.94,21.61.84,6.57,2.57,11.21,7.11,11.4,14.34.37,13.96.11,27.94.11,42.25h-12.62c-.08-1.86-.16-3.65-.21-4.7-4.79,2.05-9.56,4.99-14.73,6.11-9.75,2.11-18.24-3.17-20.83-11.87-2.74-9.22,1.72-18.45,11.46-22,4.91-1.79,10.32-2.28,15.56-3.03,2.73-.39,5.56-.07,8.64-.07ZM471.51,689.9c-5.91.83-11.52.94-16.61,2.6-2.56.84-5.53,4.33-5.88,6.94-.35,2.62,1.6,6.61,3.83,8.31,6.45,4.91,17.49-.1,18.6-8.09.4-2.9.06-5.9.06-9.76Z"/>
      <path class="cls-1" d="M620.38,717.95h-13.09v-4.91c-5.19,2.15-10.19,5.1-15.59,6.27-8.57,1.86-16.65-3.31-19.41-11.2-3.06-8.74-.07-17.65,8.4-21.58,5.13-2.38,11.07-3.14,16.72-4.25,3.19-.63,6.53-.5,9.73-.7.62-13.18-8.72-15.58-29.69-7.85,0-2.62-.23-5.08.1-7.47.16-1.18,1.08-2.8,2.09-3.25,8.92-3.97,18.17-5.29,27.68-2.44,8.62,2.58,12.75,8.94,12.97,17.53.34,13.12.09,26.25.09,39.84ZM607.78,690.01c-5.81.53-10.47.63-14.99,1.48-4.45.83-8.09,3.09-8.37,8.39-.24,4.71,2.67,8.5,7.15,9.3,6.75,1.21,13.27-1.73,14.7-7.17.94-3.58.97-7.4,1.5-12Z"/>
      <path class="cls-1" d="M378.02,634.28h13.1v83.48h-13.1v-83.48Z"/>
      <path class="cls-1" d="M0,638.33h13.07v79.44H0v-79.44Z"/>
      <path class="cls-1" d="M514.66,717.88h-12.87v-57.35h12.73v9.76c2.71-3.01,4.92-5.77,7.48-8.16,1.28-1.2,3.11-1.97,4.82-2.5,6.72-2.08,8.76-.54,8.69,6.33-.02,2.12,0,4.25,0,6.5-12.05-3.59-19.2,1.31-20.14,13.5-.41,5.31-.57,10.63-.68,15.96-.11,5.15-.02,10.3-.02,15.96Z"/>
      <path class="cls-1" d="M422.12,717.89h-12.94v-57.2h12.94v57.2Z"/>
      <path class="cls-1" d="M545.36,660.43h12.78v57.43h-12.78v-57.43Z"/>
      <path class="cls-1" d="M347.61,660.55h12.63v57.19h-12.63v-57.19Z"/>
      <path class="cls-1" d="M551.79,649.11c-5.16.04-8.5-2.72-8.42-6.97.07-3.91,3.57-6.86,8.16-6.89,4.52-.03,8.01,2.95,8.07,6.89.06,4.25-2.93,6.93-7.81,6.97Z"/>
      <path class="cls-1" d="M415.77,649.1c-4.85-.02-8.17-2.8-8.16-6.83,0-3.88,3.59-6.96,8.17-7.02,4.68-.06,7.93,2.81,7.96,7.03.02,4.36-2.88,6.85-7.96,6.82Z"/>
      <path class="cls-1" d="M354.08,649.1c-4.88.09-8.33-2.56-8.49-6.5-.16-3.93,3.29-7.14,7.87-7.32,4.58-.18,8.22,2.73,8.39,6.7.19,4.27-2.83,7.04-7.77,7.12Z"/>
    </g>
  </g>
</svg>